<?xml version="1.0" standalone="no"?>
<!DOCTYPE svg PUBLIC "-//W3C//DTD SVG 20010904//EN"
 "http://www.w3.org/TR/2001/REC-SVG-20010904/DTD/svg10.dtd">
<svg version="1.0" xmlns="http://www.w3.org/2000/svg"
 width="1024.000000pt" height="559.000000pt" viewBox="0 0 1024.000000 559.000000"
 preserveAspectRatio="xMidYMid meet">

<g transform="translate(0.000000,559.000000) scale(0.100000,-0.100000)"
fill="#000000" stroke="none">
<path d="M6090 4930 c-107 -23 -156 -41 -248 -90 -200 -108 -360 -291 -445
-509 -38 -99 -53 -158 -72 -287 -26 -172 -85 -332 -167 -452 -26 -38 -240
-272 -583 -637 -72 -77 -239 -255 -370 -395 -132 -140 -280 -298 -330 -350
-51 -52 -176 -185 -280 -295 -104 -110 -236 -250 -294 -310 -58 -61 -182 -191
-276 -290 -93 -99 -223 -235 -287 -301 -121 -124 -134 -148 -105 -187 38 -51
236 -73 355 -39 68 19 76 20 115 5 65 -23 201 -28 274 -10 145 38 181 63 403
287 113 113 261 265 328 337 l124 132 51 -33 c241 -153 502 -242 828 -281 l46
-6 70 -118 70 -119 -46 -6 c-96 -13 -188 -85 -221 -173 -30 -82 -30 -83 44
-83 62 0 65 1 71 27 7 34 30 63 70 89 27 17 53 19 320 22 159 2 314 1 343 -3
62 -8 114 -47 134 -101 12 -33 13 -34 70 -34 l58 0 0 33 c0 68 -87 176 -170
209 -14 6 -61 13 -104 17 l-79 6 -79 129 c-43 71 -78 130 -78 132 0 1 39 12
88 23 626 147 1148 637 1360 1276 96 288 122 479 122 896 l0 306 132 64 c325
158 313 151 316 187 2 18 -3 41 -10 49 -7 9 -122 70 -255 134 l-242 118 -39
83 c-21 46 -60 115 -85 154 -57 86 -200 226 -283 277 -200 121 -431 163 -644
117z m261 -111 c99 -12 162 -31 244 -72 201 -99 357 -281 434 -505 46 -135 53
-221 54 -642 1 -422 -7 -533 -49 -750 -99 -503 -386 -945 -789 -1217 -204
-137 -455 -234 -715 -275 -109 -17 -391 -17 -500 0 -258 41 -516 142 -725 284
-47 31 -165 119 -165 122 0 0 172 1 382 1 397 0 517 8 737 46 453 80 775 282
940 591 131 244 159 567 69 798 -48 122 -102 203 -195 291 -200 189 -451 249
-715 173 -13 -4 -11 8 13 70 38 99 56 169 75 294 31 206 92 355 200 491 152
189 347 289 605 310 9 0 54 -4 100 -10z m965 -740 c68 -33 126 -64 128 -68 5
-7 -215 -121 -233 -121 -4 0 -11 48 -14 108 -3 59 -8 115 -12 125 -4 9 -4 17
0 17 5 0 64 -27 131 -61z m-1645 -515 c311 -57 529 -333 529 -667 0 -291 -132
-558 -358 -725 -227 -168 -507 -249 -970 -281 -175 -13 -532 -15 -532 -3 0 4
57 36 127 72 341 175 658 434 954 780 79 91 99 121 99 145 0 73 -51 73 -161
-2 -161 -108 -377 -196 -562 -230 -92 -16 -319 -24 -332 -11 -4 4 118 141 270
305 466 500 492 525 600 574 52 23 82 31 190 53 39 7 64 6 146 -10z m-566
-985 c-133 -136 -372 -323 -555 -434 -116 -71 -327 -173 -435 -210 -83 -29
-127 -32 -275 -17 l-65 7 114 120 c62 66 191 204 287 306 l174 185 78 -14
c160 -28 418 2 613 72 52 18 98 34 104 35 5 0 -13 -22 -40 -50z m-1282 -785
c37 -4 67 -9 67 -12 0 -3 -51 -57 -113 -121 -62 -64 -174 -179 -248 -256 -389
-403 -409 -422 -471 -455 -33 -18 -83 -39 -112 -46 -52 -14 -146 -19 -146 -8
0 4 87 97 192 208 106 110 229 239 274 286 44 47 137 144 206 215 69 72 140
147 159 169 31 36 35 38 78 32 25 -3 76 -8 114 -12z m235 -121 c32 -26 61 -50
66 -55 5 -4 -82 -103 -194 -220 -406 -425 -448 -461 -574 -494 -48 -13 -146
-19 -146 -9 0 2 24 28 53 57 62 62 441 459 612 640 66 69 122 127 123 127 2 1
29 -20 60 -46z m1511 -563 c39 -67 71 -123 71 -125 0 -3 -44 -5 -99 -5 l-98 0
-67 111 c-36 61 -66 115 -66 119 0 5 33 11 73 13 39 1 82 4 93 5 18 2 35 -20
93 -118z"/>
<path d="M6558 4272 c-68 -41 -74 -134 -13 -189 68 -63 169 -34 196 57 15 48
0 89 -43 125 -36 30 -99 33 -140 7z"/>
</g>
</svg>
