<?xml version="1.0" standalone="no"?>
<!DOCTYPE svg PUBLIC "-//W3C//DTD SVG 20010904//EN"
 "http://www.w3.org/TR/2001/REC-SVG-20010904/DTD/svg10.dtd">
<svg version="1.0" xmlns="http://www.w3.org/2000/svg"
 width="1024.000000pt" height="559.000000pt" viewBox="0 0 1024.000000 559.000000"
 preserveAspectRatio="xMidYMid meet">

<g transform="translate(0.000000,559.000000) scale(0.100000,-0.100000)"
fill="#000000" stroke="none">
<path d="M3003 5168 c-23 -26 -21 41 -44 -1412 l-10 -680 -35 -88 c-46 -117
-80 -257 -100 -403 -9 -66 -18 -122 -19 -123 -2 -2 -39 5 -82 17 -43 11 -147
38 -230 60 l-153 39 -9 -36 c-25 -96 -26 -90 16 -101 21 -5 101 -26 178 -47
77 -20 167 -43 200 -51 33 -7 65 -17 72 -21 6 -4 17 -54 23 -112 6 -58 25
-159 41 -225 16 -66 29 -124 29 -128 0 -4 -129 -8 -287 -9 l-288 -3 -3 -62 -3
-63 315 0 314 0 58 -107 c31 -60 81 -145 111 -191 31 -46 53 -85 52 -87 -2 -2
-58 -17 -124 -35 -66 -17 -145 -38 -175 -46 -30 -8 -116 -31 -190 -50 -74 -20
-184 -49 -244 -64 -59 -16 -110 -31 -112 -33 -6 -6 16 -110 25 -120 4 -4 29
-1 57 7 56 17 217 60 319 86 68 17 258 68 360 96 28 7 79 21 115 30 l65 16
110 -109 c400 -397 914 -631 1524 -694 144 -15 488 -6 631 16 309 48 633 160
890 307 209 121 321 206 487 370 l112 111 83 -23 c46 -12 124 -33 173 -46 50
-13 176 -47 280 -74 105 -28 230 -61 279 -75 49 -13 93 -22 96 -20 9 5 33 115
27 121 -5 5 -105 32 -377 104 -323 84 -465 122 -468 125 -2 1 25 45 59 96 33
52 83 138 110 191 l49 98 315 0 315 0 0 65 0 65 -290 0 c-159 0 -290 2 -290 4
0 3 13 56 29 118 16 62 35 166 42 230 l13 118 55 15 c94 25 160 43 299 79 74
19 136 37 139 40 5 4 -14 102 -23 117 -3 6 -133 -25 -356 -85 -53 -14 -100
-26 -105 -26 -5 0 -15 48 -22 108 -16 133 -60 312 -106 428 l-35 88 -10 655
c-21 1453 -20 1403 -43 1429 -42 46 -6 72 -741 -528 -104 -85 -217 -177 -250
-204 -34 -28 -101 -83 -151 -123 -62 -51 -96 -72 -110 -69 -11 2 -58 16 -105
30 -301 94 -664 134 -965 106 -218 -21 -518 -83 -639 -134 -32 -13 -34 -13
-77 23 -24 21 -143 118 -264 216 -121 98 -314 256 -430 350 -115 94 -261 212
-323 263 -68 54 -123 92 -136 92 -12 0 -32 -10 -43 -22z m208 -261 c48 -40
151 -125 230 -189 79 -64 259 -210 399 -324 140 -114 257 -208 259 -210 2 -2
-51 -30 -116 -63 l-120 -59 -244 245 c-134 134 -254 249 -267 254 -24 9 -59
-3 -74 -25 -27 -40 -11 -61 233 -304 l241 -240 -49 -33 c-220 -150 -465 -392
-580 -575 -15 -24 -31 -44 -35 -44 -4 0 -5 46 -3 103 5 86 25 1307 25 1480 0
31 3 57 8 57 4 -1 46 -33 93 -73z m3920 -49 c0 -68 2 -132 4 -143 1 -11 6
-285 9 -610 4 -324 9 -630 12 -680 l5 -90 -23 29 c-13 16 -48 64 -79 105 -119
159 -311 343 -487 466 l-84 58 241 241 c257 258 266 271 221 316 -44 44 -56
36 -320 -230 -137 -137 -252 -250 -256 -250 -4 0 -59 25 -121 56 l-113 55 124
102 c68 56 177 145 241 197 65 52 166 134 224 182 58 48 169 139 246 202 77
63 143 115 148 115 4 1 7 -54 8 -121z m-1691 -624 c373 -46 745 -190 1065
-413 132 -92 382 -336 466 -456 198 -280 315 -594 332 -883 l3 -62 -40 -11
c-39 -10 -117 -30 -299 -79 -43 -11 -146 -38 -230 -60 -427 -110 -583 -151
-594 -155 -9 -3 -8 -18 4 -62 9 -32 17 -59 18 -61 2 -2 101 22 221 53 121 31
269 69 329 85 115 30 341 88 460 120 135 35 125 36 125 -10 0 -48 -43 -255
-68 -331 l-19 -54 -531 -3 -532 -2 0 -65 0 -65 500 0 c339 0 500 -3 500 -10 0
-27 -115 -217 -181 -301 l-29 -37 -82 23 c-46 13 -173 46 -283 75 -110 29
-246 65 -303 80 -72 19 -105 24 -107 16 -2 -6 -10 -35 -18 -64 l-15 -52 27 -6
c14 -4 89 -23 166 -44 77 -21 221 -59 320 -85 99 -25 184 -50 188 -54 12 -12
-169 -179 -284 -263 -541 -392 -1243 -543 -1914 -409 -320 63 -657 206 -915
389 -119 84 -332 275 -319 285 2 2 42 14 89 26 47 12 193 50 325 85 132 35
253 66 268 70 22 5 27 11 22 24 -3 9 -11 38 -17 65 -10 41 -14 46 -32 41 -29
-10 -269 -73 -525 -140 -118 -30 -218 -57 -222 -60 -15 -9 -219 307 -219 340
0 3 225 6 500 6 l500 0 0 65 0 65 -530 0 -529 0 -26 83 c-28 89 -73 332 -63
342 3 3 93 -17 199 -45 107 -27 291 -75 409 -106 118 -30 284 -73 368 -95 85
-22 155 -39 157 -37 4 4 35 122 32 123 -1 1 -75 20 -165 43 -303 78 -696 180
-817 213 -66 17 -133 35 -150 38 -29 6 -30 9 -33 64 -2 31 6 109 18 173 93
523 439 987 960 1292 444 259 975 362 1520 296z"/>
<path d="M4187 3033 c-4 -3 -7 -118 -7 -255 l0 -248 65 0 65 0 0 255 0 255
-58 0 c-32 0 -62 -3 -65 -7z"/>
<path d="M5930 2785 l0 -255 65 0 65 0 0 255 0 255 -65 0 -65 0 0 -255z"/>
<path d="M4910 2160 c-65 -12 -101 -28 -133 -58 -41 -39 -57 -74 -57 -129 0
-54 13 -79 100 -192 76 -99 124 -144 185 -173 l50 -24 -3 -54 c-8 -151 -132
-270 -281 -270 -138 0 -269 119 -271 248 l0 32 -70 0 -70 0 6 -47 c8 -67 31
-129 72 -192 40 -60 90 -101 172 -140 49 -23 67 -26 165 -26 102 0 114 2 170
30 33 17 87 56 119 88 l59 58 44 -50 c66 -76 168 -123 277 -129 105 -5 173 13
257 71 96 65 158 168 175 290 l6 47 -69 0 -70 0 -6 -51 c-21 -174 -220 -281
-382 -205 -101 47 -170 158 -163 262 3 43 6 48 33 57 56 18 115 70 188 166 95
125 106 147 107 204 0 55 -10 79 -53 125 -51 53 -105 64 -322 68 -104 1 -210
-1 -235 -6z m443 -139 c57 -23 47 -56 -60 -191 -95 -120 -169 -146 -261 -90
-33 20 -182 212 -182 234 0 28 28 48 80 56 74 12 388 5 423 -9z"/>
</g>
</svg>
