<?xml version="1.0" standalone="no"?>
<!DOCTYPE svg PUBLIC "-//W3C//DTD SVG 20010904//EN"
 "http://www.w3.org/TR/2001/REC-SVG-20010904/DTD/svg10.dtd">
<svg version="1.0" xmlns="http://www.w3.org/2000/svg"
 width="1024.000000pt" height="559.000000pt" viewBox="0 0 1024.000000 559.000000"
 preserveAspectRatio="xMidYMid meet">

<g transform="translate(0.000000,559.000000) scale(0.100000,-0.100000)"
fill="#000000" stroke="none">
<path d="M4870 4580 c-171 -32 -368 -107 -493 -187 l-48 -31 -42 23 c-387 216
-867 111 -1137 -246 -141 -188 -211 -406 -211 -659 0 -198 32 -333 117 -500
113 -221 316 -398 534 -466 l90 -28 0 -121 c0 -459 149 -823 455 -1113 197
-186 429 -309 695 -367 103 -23 367 -31 483 -15 256 35 470 123 679 280 292
220 480 526 550 899 6 31 13 141 17 245 l6 189 80 27 c348 116 588 412 650
800 72 455 -148 914 -528 1099 -127 63 -219 83 -372 84 -156 1 -252 -20 -390
-86 l-90 -44 -65 40 c-138 85 -327 153 -505 182 -129 21 -353 18 -475 -5z
m450 -135 c561 -90 984 -517 1085 -1092 12 -72 15 -188 15 -629 0 -601 -4
-648 -69 -843 -86 -255 -258 -488 -476 -643 -504 -357 -1186 -311 -1636 111
-159 148 -280 336 -344 533 -64 198 -67 222 -72 767 -5 522 1 652 38 811 87
369 345 694 684 863 99 49 211 89 295 106 30 6 75 15 100 20 73 14 278 12 380
-4z m-1292 -111 c35 -8 87 -25 117 -39 l54 -23 -92 -95 c-242 -247 -378 -535
-416 -879 -6 -54 -11 -226 -11 -383 l0 -285 -67 25 c-244 92 -427 303 -503
580 -28 98 -38 301 -21 402 39 231 156 438 315 559 188 143 396 189 624 138z
m2535 -1 c290 -71 512 -322 582 -655 56 -262 1 -530 -150 -743 -95 -134 -278
-266 -402 -291 l-33 -6 0 321 c0 239 -4 345 -15 416 -51 314 -191 589 -414
810 -45 44 -81 83 -81 86 0 13 126 57 195 68 133 22 215 20 318 -6z"/>
<path d="M4362 3188 c-82 -40 -152 -149 -152 -239 0 -44 31 -125 62 -163 64
-77 178 -113 275 -87 104 28 186 139 186 249 0 103 -54 191 -145 238 -62 32
-163 33 -226 2z m246 -88 c67 -63 5 -163 -81 -131 -51 20 -63 86 -22 126 30
31 73 32 103 5z"/>
<path d="M5649 3182 c-251 -131 -135 -518 146 -489 124 13 219 108 232 233 7
68 -9 127 -52 185 -71 98 -214 129 -326 71z m255 -83 c20 -16 26 -29 26 -59 0
-68 -69 -102 -123 -60 -44 35 -43 93 2 127 24 19 65 15 95 -8z"/>
<path d="M4981 2470 c-148 -21 -243 -66 -276 -131 -20 -37 -19 -122 1 -162 46
-89 224 -289 303 -339 24 -16 31 -27 31 -52 0 -64 -76 -167 -155 -209 -33 -18
-57 -22 -130 -22 -101 0 -133 12 -198 74 -48 45 -73 92 -92 173 -8 35 -22 69
-32 76 -28 20 -73 11 -96 -20 -19 -26 -20 -32 -8 -95 17 -90 61 -170 132 -238
84 -81 150 -108 271 -113 147 -6 244 33 342 138 l47 50 58 -60 c85 -86 167
-123 287 -128 147 -7 262 39 348 139 91 106 135 270 86 319 -46 46 -120 6
-120 -64 0 -45 -52 -147 -91 -180 -96 -81 -216 -99 -324 -47 -68 32 -107 72
-141 146 -34 72 -31 85 27 124 95 65 256 254 295 346 31 74 3 165 -63 209 -84
55 -339 89 -502 66z m321 -150 c73 -14 118 -36 118 -58 0 -42 -158 -229 -252
-299 l-48 -35 -38 30 c-57 46 -183 181 -220 237 -18 27 -31 59 -30 70 9 58
281 90 470 55z"/>
</g>
</svg>
