<?xml version="1.0" standalone="no"?>
<!DOCTYPE svg PUBLIC "-//W3C//DTD SVG 20010904//EN"
 "http://www.w3.org/TR/2001/REC-SVG-20010904/DTD/svg10.dtd">
<svg version="1.0" xmlns="http://www.w3.org/2000/svg"
 width="1024.000000pt" height="559.000000pt" viewBox="0 0 1024.000000 559.000000"
 preserveAspectRatio="xMidYMid meet">

<g transform="translate(0.000000,559.000000) scale(0.100000,-0.100000)"
fill="#000000" stroke="none">
<path d="M5283 5105 c-354 -67 -664 -200 -940 -406 -54 -40 -164 -139 -245
-221 -139 -139 -149 -148 -185 -148 -92 0 -448 -54 -602 -91 -364 -88 -647
-195 -951 -363 -110 -61 -366 -226 -435 -281 -22 -17 -85 -67 -140 -110 -55
-44 -188 -167 -296 -275 -182 -181 -199 -201 -238 -280 -94 -191 -73 -382 62
-558 65 -84 336 -344 478 -458 452 -363 930 -601 1479 -738 143 -35 414 -86
461 -86 17 0 51 -27 114 -91 249 -252 538 -413 885 -493 186 -43 249 -45 270
-7 5 10 14 71 21 135 13 141 0 280 -37 392 -14 41 -22 79 -19 84 3 6 17 10 30
10 66 0 506 115 636 165 34 14 71 25 81 25 10 0 53 -17 96 -38 122 -62 266
-107 432 -139 72 -13 145 -17 297 -17 189 0 204 1 230 20 46 34 49 13 -68 489
-21 88 -39 165 -39 172 0 6 42 43 93 82 50 38 143 113 204 166 l113 96 92 -90
c373 -363 832 -591 1304 -646 185 -22 245 -20 274 7 22 20 23 26 16 118 -16
254 -108 567 -224 765 -102 173 -227 303 -385 399 l-59 35 44 22 c190 97 368
286 481 512 96 193 147 381 168 620 17 198 6 214 -150 204 -434 -29 -855 -194
-1203 -472 -128 -102 -213 -182 -288 -270 l-72 -84 -101 91 c-286 256 -677
498 -1072 663 -77 32 -145 63 -152 69 -7 6 -28 72 -47 146 -54 205 -153 590
-188 728 -31 125 -47 156 -83 165 -11 3 -75 -5 -142 -18z m77 -128 c0 -3 101
-398 170 -661 22 -88 44 -164 47 -169 3 -5 -3 -7 -13 -4 -11 3 -59 17 -109 32
-49 14 -112 32 -140 40 -81 23 -339 73 -495 95 -133 18 -449 40 -595 40 l-59
0 64 66 c207 210 499 387 801 484 55 18 240 64 289 73 14 2 28 5 33 6 4 0 7 0
7 -2z m-885 -777 c311 -16 600 -63 871 -139 177 -50 205 -60 402 -137 351
-138 709 -341 992 -564 153 -120 369 -341 402 -410 114 -241 77 -444 -118
-650 -202 -212 -537 -459 -849 -626 -799 -429 -1691 -571 -2610 -418 -188 31
-635 153 -635 173 0 3 27 38 61 76 320 371 471 858 429 1380 -32 406 -158 763
-371 1057 l-48 67 83 26 c295 89 596 143 931 164 177 12 250 12 460 1z m-1552
-322 c137 -187 240 -409 303 -653 48 -186 71 -452 55 -654 -31 -386 -165 -709
-412 -989 -76 -88 -84 -93 -112 -88 -51 10 -353 167 -498 258 -245 154 -455
321 -667 531 -211 209 -257 283 -256 422 0 112 33 178 159 315 336 368 782
687 1230 881 61 26 118 48 127 48 11 1 39 -28 71 -71z m5714 -20 c-15 -222
-105 -486 -229 -672 -104 -155 -312 -317 -470 -365 -108 -33 -117 -38 -129
-68 -18 -48 5 -81 70 -99 252 -70 443 -242 576 -519 62 -127 93 -222 128 -390
32 -147 39 -215 23 -215 -6 0 -51 5 -101 10 -383 43 -747 199 -1075 461 -138
110 -264 235 -254 251 9 14 95 141 99 146 3 4 229 -123 415 -233 91 -54 209
-119 262 -146 109 -53 141 -54 168 -6 23 41 -1 74 -80 116 -36 18 -180 100
-320 181 -140 81 -284 164 -320 183 -61 34 -65 38 -63 69 6 100 7 227 1 258
l-7 35 190 135 c287 204 403 282 477 320 107 55 122 67 122 102 0 40 -25 68
-62 68 -62 0 -275 -126 -523 -310 -60 -44 -142 -103 -182 -130 l-71 -50 -28
48 c-15 26 -40 63 -56 83 -15 20 -28 40 -28 43 0 17 174 196 271 280 325 279
665 435 1074 491 143 20 129 29 122 -77z m-2048 -2368 c28 -118 51 -221 51
-229 0 -12 -27 -13 -162 -8 -180 6 -269 21 -435 73 -161 51 -161 52 -56 99
128 57 302 149 428 226 60 38 113 65 116 61 3 -4 29 -104 58 -222z m-1748
-475 c39 -100 62 -299 43 -372 -8 -30 -21 -29 -162 8 -207 54 -402 143 -551
251 -82 60 -191 149 -191 157 0 3 154 7 343 7 188 1 365 6 392 12 89 18 95 15
126 -63z"/>
<path d="M2401 3259 c-98 -19 -171 -73 -219 -164 -23 -43 -27 -62 -27 -135 0
-98 19 -144 85 -210 65 -65 112 -84 210 -85 102 0 156 21 220 85 49 49 76 105
86 177 6 47 4 54 -19 77 -33 32 -51 33 -93 1 -45 -35 -79 -32 -120 9 -48 48
-47 95 1 143 42 42 42 60 0 84 -42 23 -73 28 -124 18z m-3 -269 c16 -41 87
-98 137 -111 25 -6 45 -15 45 -20 0 -18 -66 -52 -110 -57 -152 -14 -239 165
-133 275 l37 38 7 -50 c4 -27 11 -61 17 -75z"/>
<path d="M7482 4245 c-151 -81 -339 -212 -419 -292 -44 -43 -16 -123 43 -123
12 0 61 32 110 72 105 85 216 158 339 225 105 56 123 84 88 131 -31 42 -65 39
-161 -13z"/>
<path d="M8937 3348 c-9 -7 -28 -55 -41 -108 -39 -148 -109 -309 -185 -428
-23 -34 -41 -74 -41 -87 0 -51 71 -85 112 -52 48 38 167 270 219 428 51 157
58 210 30 238 -23 23 -68 28 -94 9z"/>
<path d="M7352 1504 c-16 -11 -22 -25 -22 -54 0 -35 5 -42 44 -69 59 -41 233
-132 331 -174 114 -49 291 -107 324 -107 35 0 61 28 61 64 0 46 -17 64 -77 81
-166 47 -379 140 -529 231 -79 48 -98 52 -132 28z"/>
<path d="M8332 1170 c-47 -20 -54 -97 -10 -121 25 -13 232 -25 271 -15 33 8
53 56 36 88 -18 34 -22 35 -128 42 -53 4 -107 9 -121 11 -14 2 -35 0 -48 -5z"/>
</g>
</svg>
