<?xml version="1.0" standalone="no"?>
<!DOCTYPE svg PUBLIC "-//W3C//DTD SVG 20010904//EN"
 "http://www.w3.org/TR/2001/REC-SVG-20010904/DTD/svg10.dtd">
<svg version="1.0" xmlns="http://www.w3.org/2000/svg"
 width="1024.000000pt" height="559.000000pt" viewBox="0 0 1024.000000 559.000000"
 preserveAspectRatio="xMidYMid meet">

<g transform="translate(0.000000,559.000000) scale(0.100000,-0.100000)"
fill="#000000" stroke="none">
<path d="M3460 5224 c-291 -53 -486 -244 -571 -559 -9 -32 -14 -101 -13 -190
0 -129 3 -147 32 -236 52 -157 150 -286 281 -369 39 -25 71 -47 71 -50 0 -3
-25 -51 -55 -105 -71 -129 -134 -279 -180 -430 -43 -141 -46 -149 -71 -153
-59 -10 -226 -70 -306 -110 -128 -65 -222 -130 -323 -224 -415 -388 -566
-1046 -369 -1608 154 -443 521 -813 975 -983 285 -107 665 -128 981 -53 213
51 470 179 645 322 l54 43 77 -33 c160 -68 290 -91 478 -83 156 6 256 27 387
83 l78 34 67 -54 c217 -174 503 -299 784 -341 130 -19 376 -19 504 0 352 53
661 210 920 469 257 258 408 561 453 915 14 106 14 286 1 388 -78 590 -448
1048 -975 1208 -138 42 -130 36 -145 101 -32 137 -105 320 -201 503 -33 63
-58 115 -57 116 2 1 33 21 70 44 126 79 226 210 281 369 29 82 31 96 31 237 0
177 -12 232 -82 375 -82 168 -240 303 -417 356 -90 27 -277 25 -369 -4 -223
-72 -385 -225 -472 -447 -15 -38 -29 -72 -30 -74 -2 -2 -41 10 -86 27 -87 32
-230 76 -285 87 -18 4 -33 9 -33 11 0 12 31 62 59 98 36 45 39 78 11 106 -17
17 -33 20 -112 20 -118 0 -170 -14 -302 -78 -13 -7 3 57 30 117 29 64 30 102
6 124 -23 21 -48 21 -124 2 -178 -47 -339 -165 -444 -326 -43 -66 -43 -66
-106 -78 -35 -7 -130 -35 -212 -62 -82 -27 -150 -48 -151 -47 -1 2 -12 30 -24
63 -77 210 -251 383 -451 449 -63 20 -108 28 -184 31 -56 2 -112 2 -126 -1z
m254 -154 c37 -12 93 -36 125 -55 68 -40 168 -143 211 -218 34 -58 75 -180 63
-185 -4 -1 -51 -29 -103 -61 -52 -33 -96 -58 -98 -57 -1 2 -9 28 -17 60 -47
178 -192 336 -360 391 -64 21 -236 28 -305 12 l-35 -8 35 30 c123 108 313 143
484 91z m3131 -1 c58 -18 175 -84 189 -108 9 -14 0 -14 -44 -1 -48 14 -176 14
-236 -1 -201 -48 -373 -229 -419 -442 l-6 -28 -42 29 c-23 16 -70 44 -104 62
-70 38 -69 36 -31 135 30 78 64 130 130 201 149 159 359 216 563 153z m-1729
-56 c-11 -43 -19 -199 -12 -227 9 -36 33 -56 68 -56 23 0 42 12 83 53 51 53
155 107 205 107 19 0 19 -1 0 -43 -55 -123 -65 -292 -21 -328 30 -24 52 -24
85 2 23 18 26 27 26 85 0 37 4 64 10 64 20 0 167 -41 255 -72 174 -60 396
-182 560 -307 82 -62 244 -220 320 -311 165 -198 335 -515 395 -738 6 -24 14
-50 17 -59 6 -14 -4 -16 -93 -10 -382 25 -748 -106 -1109 -399 -91 -73 -252
-233 -336 -333 l-46 -55 -29 21 c-80 57 -206 86 -374 86 -153 0 -252 -21 -350
-74 l-55 -30 -34 43 c-68 84 -257 271 -352 348 -347 283 -724 418 -1096 394
-57 -4 -103 -4 -103 -1 0 18 75 227 109 305 263 598 776 1034 1381 1177 63 15
122 30 130 34 8 5 32 38 54 75 49 86 153 190 236 239 35 20 69 37 73 37 5 0 6
-12 3 -27z m-1652 -188 c141 -37 248 -142 298 -293 10 -30 18 -74 18 -97 0
-35 -5 -45 -31 -64 -92 -68 -310 -300 -405 -430 -5 -6 -110 58 -152 94 -134
115 -207 329 -182 531 13 103 15 108 73 161 105 97 246 133 381 98z m3509 0
c82 -21 131 -49 192 -108 53 -52 53 -52 65 -141 35 -248 -65 -475 -262 -600
-56 -35 -78 -43 -78 -28 -1 12 -111 145 -186 225 -38 40 -109 108 -159 152
-83 74 -89 81 -87 115 7 88 54 192 120 262 107 114 254 160 395 123z m-3464
-1800 c323 -48 657 -242 947 -548 133 -140 199 -226 217 -280 33 -99 224 -322
327 -382 l51 -30 -3 -125 c-4 -111 -7 -131 -31 -176 -39 -76 -71 -110 -139
-143 -51 -26 -73 -31 -132 -31 -86 0 -135 21 -193 79 -39 40 -73 111 -73 151
0 24 -35 52 -65 52 -117 0 -64 -213 83 -336 94 -78 244 -106 371 -67 79 24
170 87 216 150 17 22 33 41 36 41 4 0 14 -12 24 -26 47 -71 148 -143 240 -169
227 -66 494 107 499 322 1 49 -2 58 -25 75 -24 18 -30 19 -54 7 -33 -16 -42
-31 -50 -81 -8 -54 -63 -128 -119 -163 -42 -25 -62 -31 -127 -34 -66 -3 -86 1
-131 22 -67 31 -120 85 -156 156 -24 50 -27 69 -30 176 l-4 120 41 23 c122 69
294 268 344 397 22 59 122 181 267 326 429 429 898 587 1405 473 235 -53 429
-159 601 -328 247 -244 385 -589 387 -971 1 -269 -63 -504 -201 -735 -279
-466 -820 -756 -1357 -726 -449 25 -782 184 -1104 529 -58 62 -83 70 -119 37
-36 -34 -29 -74 24 -130 25 -27 43 -53 40 -59 -9 -14 -109 -50 -190 -67 -84
-19 -317 -21 -391 -5 -73 17 -215 63 -215 71 0 3 20 30 45 59 51 60 58 98 23
131 -37 35 -62 26 -125 -46 -229 -258 -522 -425 -868 -495 -196 -40 -466 -31
-670 22 -456 117 -837 444 -1012 869 -132 318 -143 670 -32 1004 113 341 365
624 671 757 241 105 508 142 757 104z m1835 -698 c38 -14 78 -34 88 -45 18
-17 18 -22 5 -53 -33 -80 -220 -282 -285 -308 -29 -12 -38 -11 -72 4 -67 30
-239 223 -275 307 -14 36 -14 37 11 57 26 20 126 56 179 65 17 2 86 3 155 1
104 -2 137 -7 194 -28z"/>
<path d="M4215 3536 c-61 -28 -120 -91 -134 -143 -14 -49 -14 -127 0 -176 6
-21 27 -57 47 -79 151 -168 424 -80 440 142 6 97 -10 146 -71 205 -81 79 -184
97 -282 51z m150 -120 c104 -44 94 -194 -15 -227 -70 -21 -150 41 -150 116 0
42 34 93 73 110 41 18 50 18 92 1z"/>
<path d="M5812 3534 c-91 -45 -142 -127 -142 -229 0 -176 162 -294 332 -243
53 16 132 88 153 140 23 54 23 150 1 203 -56 133 -216 193 -344 129z m193
-144 c26 -26 30 -38 30 -84 0 -64 -26 -99 -85 -117 -76 -23 -156 45 -146 124
13 107 127 151 201 77z"/>
<path d="M4281 2013 c-28 -23 -31 -75 -6 -103 22 -24 77 -27 99 -4 64 63 -23
163 -93 107z"/>
<path d="M5861 2004 c-26 -34 -27 -54 0 -88 56 -71 166 9 112 82 -29 39 -84
42 -112 6z"/>
<path d="M4500 1800 c-11 -11 -20 -33 -20 -50 0 -17 9 -39 20 -50 11 -11 33
-20 50 -20 17 0 39 9 50 20 11 11 20 33 20 50 0 17 -9 39 -20 50 -11 11 -33
20 -50 20 -17 0 -39 -9 -50 -20z"/>
<path d="M5640 1800 c-42 -42 -12 -120 48 -120 46 0 72 25 72 70 0 29 -6 43
-22 54 -31 22 -74 20 -98 -4z"/>
</g>
</svg>
