<?xml version="1.0" standalone="no"?>
<!DOCTYPE svg PUBLIC "-//W3C//DTD SVG 20010904//EN"
 "http://www.w3.org/TR/2001/REC-SVG-20010904/DTD/svg10.dtd">
<svg version="1.0" xmlns="http://www.w3.org/2000/svg"
 width="1024.000000pt" height="559.000000pt" viewBox="0 0 1024.000000 559.000000"
 preserveAspectRatio="xMidYMid meet">

<g transform="translate(0.000000,559.000000) scale(0.100000,-0.100000)"
fill="#000000" stroke="none">
<path d="M3967 4794 c-126 -66 -162 -205 -161 -629 0 -223 3 -278 23 -389 73
-421 206 -753 461 -1152 12 -19 9 -28 -36 -95 -62 -93 -118 -234 -143 -355
-11 -52 -29 -107 -40 -123 -38 -54 -90 -175 -112 -261 -28 -111 -23 -251 13
-355 88 -253 356 -457 713 -544 44 -10 106 -33 137 -51 92 -50 178 -71 298
-72 119 -1 194 18 309 76 36 19 100 42 141 51 286 67 553 247 659 444 113 212
92 478 -55 709 -19 29 -34 62 -34 75 0 43 -51 213 -86 286 -19 41 -53 101 -75
133 l-40 59 70 114 c209 340 338 679 407 1075 27 153 27 611 0 755 -20 105
-49 176 -88 212 -39 37 -108 63 -169 63 -84 0 -142 -34 -248 -146 -331 -349
-543 -927 -587 -1597 -7 -104 -8 -108 -28 -103 -43 12 -233 17 -296 8 -44 -7
-67 -6 -72 1 -3 6 -9 58 -13 116 -4 58 -15 165 -25 236 -55 378 -130 637 -264
905 -120 240 -323 497 -438 554 -70 35 -154 35 -221 0z m182 -93 c66 -34 207
-197 299 -348 218 -354 333 -770 372 -1336 5 -77 13 -134 21 -143 14 -17 10
-17 187 7 90 12 150 9 320 -18 46 -7 60 9 66 80 3 34 13 138 21 231 52 566
221 1037 492 1369 80 98 157 165 198 173 81 15 150 -26 173 -102 22 -78 42
-282 42 -442 0 -496 -146 -979 -433 -1430 l-40 -62 -51 48 c-28 26 -64 57 -81
69 l-30 21 3 174 c4 302 47 563 134 823 36 108 149 343 212 440 50 77 54 90
29 117 -38 42 -69 15 -158 -137 -144 -244 -232 -501 -284 -826 -24 -149 -46
-497 -36 -585 l7 -63 62 -45 c186 -133 317 -343 362 -582 11 -63 25 -101 46
-131 120 -176 152 -397 81 -568 -84 -200 -315 -367 -611 -441 -52 -12 -131
-41 -176 -64 -79 -40 -188 -69 -254 -70 -64 0 -178 32 -262 74 -47 23 -114 48
-149 55 -209 41 -440 172 -552 314 -154 193 -157 457 -7 688 32 50 45 84 59
154 26 131 36 161 86 257 65 127 171 246 309 344 28 21 29 22 32 135 2 63 -3
198 -12 299 -26 293 -59 452 -146 710 -31 91 -150 331 -207 418 -52 80 -81 96
-113 67 -29 -26 -25 -42 26 -120 67 -102 177 -334 219 -459 80 -243 123 -512
127 -800 l3 -178 -35 -27 c-19 -14 -56 -45 -81 -69 l-47 -43 -66 110 c-287
478 -420 959 -403 1459 7 206 25 338 52 396 34 72 117 96 194 57z"/>
<path d="M4550 2229 c-32 -13 -68 -47 -86 -81 -22 -42 -18 -119 9 -158 44 -66
100 -89 215 -90 78 0 92 18 92 120 0 90 -14 132 -56 172 -49 46 -116 60 -174
37z m109 -115 c13 -17 21 -41 21 -65 l0 -39 -47 0 c-56 0 -83 21 -83 63 0 65
70 91 109 41z"/>
<path d="M5565 2226 c-70 -31 -105 -101 -105 -209 0 -105 7 -112 117 -112 65
1 98 6 126 20 89 43 120 168 60 244 -53 65 -129 87 -198 57z m114 -112 c12
-15 21 -32 21 -39 0 -7 -9 -24 -21 -39 -17 -22 -28 -26 -70 -26 l-49 0 0 39
c0 50 31 91 70 91 19 0 36 -9 49 -26z"/>
<path d="M4959 1681 c-47 -15 -69 -31 -84 -61 -39 -74 -2 -151 118 -245 86
-67 94 -87 54 -146 -28 -42 -79 -68 -133 -69 -27 0 -47 -6 -59 -20 -24 -27
-13 -68 21 -76 58 -15 167 19 221 68 l22 20 38 -30 c75 -60 211 -83 233 -41
25 47 -4 79 -73 79 -38 0 -103 35 -123 65 -9 14 -17 41 -18 59 -1 30 6 39 69
87 39 30 85 77 103 104 30 44 33 56 29 99 -3 40 -11 55 -36 78 -27 24 -40 28
-90 28 -32 0 -105 2 -162 5 -57 3 -116 1 -130 -4z m321 -125 c0 -16 -17 -40
-53 -72 -75 -69 -100 -81 -132 -64 -47 25 -135 115 -135 138 0 22 2 22 160 22
l160 0 0 -24z"/>
</g>
</svg>
